<?xml version="1.0"?>
<svg version="1.1" xmlns="http://www.w3.org/2000/svg" width="200" height="40" style=""><path fill="#0095ff" d="M15.92333984375,24.79833984375q0-0.89306640625,0.098388671875-2.16455078125t0.36328125-2.64892578125t0.71142578125-2.73974609375t1.142822265625-2.40673828125t1.6650390625-1.64990234375q0.80224609375-0.49951171875,1.8466796875-0.49951171875q0.2119140625,0,0.43896484375,0.0302734375q2.6337890625,0.2421875,4.049072265625,1.203369140625t2.066162109375,2.43701171875t0.7568359375,3.3603515625t0.10595703125,3.973388671875q0,1.68017578125-0.310302734375,3.655517578125t-1.097412109375,3.685791015625t-2.172119140625,2.853271484375t-3.519287109375,1.142822265625q-1.3017578125,0-2.278076171875-0.476806640625t-1.657470703125-1.271484375t-1.1201171875-1.8466796875t-0.666015625-2.1796875t-0.325439453125-2.278076171875t-0.098388671875-2.1796875z M18.99609375,24.1171875q0,0.65087890625,0.01513671875,1.596923828125t0.128662109375,1.990478515625t0.295166015625,2.081298828125t0.537353515625,1.884521484375t0.900634765625,1.392578125t1.31689453125,0.5751953125l0.07568359375,0q0.6962890625,0,1.2412109375-0.52978515625q0.5751953125-0.56005859375,1.021728515625-1.34716796875t0.77197265625-1.657470703125t0.582763671875-1.490966796875l-0.060546875,0.13623046875q0.43896484375-1.392578125,0.59033203125-2.853271484375t0.1513671875-2.883544921875q0-0.68115234375-0.0908203125-1.642333984375t-0.295166015625-2.005615234375t-0.52978515625-2.066162109375t-0.824951171875-1.778564453125t-1.16552734375-1.150390625q-0.484375-0.28759765625-1.07470703125-0.302734375q-0.22705078125,0-0.4541015625,0.04541015625q-0.77197265625,0.1513671875-1.31689453125,0.7568359375t-0.885498046875,1.490966796875t-0.522216796875,1.9375t-0.280029296875,2.119140625t-0.113525390625,2.04345703125t-0.01513671875,1.657470703125z M25.82275390625,28.779296875l0-0.0302734375l0,0.0302734375z M31.675668945312,20.2421875q0-0.2119140625,0.4541015625-0.36328125t1.029296875-0.249755859375t1.112548828125-0.143798828125t0.734130859375-0.07568359375q0-0.40869140625,0.0302734375-0.824951171875t0.16650390625-0.74169921875t0.431396484375-0.522216796875t0.824951171875-0.19677734375q0.43896484375,0,0.666015625,0.10595703125t0.484375,0.43896484375q0.060546875,0.181640625,0.060546875,0.34814453125l0,0.507080078125t-0.0302734375,0.522216796875q0.56005859375-0.060546875,1.112548828125-0.143798828125t1.112548828125-0.083251953125q0.40869140625,0,0.56005859375,0.01513671875t0.302734375,0.36328125q0.12109375,0.34814453125-0.295166015625,0.52978515625t-0.9990234375,0.2724609375t-1.157958984375,0.13623046875t-0.6962890625,0.04541015625q-0.181640625,2.603515625-0.370849609375,5.16162109375t-0.189208984375,5.19189453125q0,1.1806640625,0.07568359375,2.43701171875t0.423828125,2.37646484375q0.0908203125,0.34814453125,0.302734375,0.65087890625t0.2119140625,0.65087890625q0,0.2119140625-0.16650390625,0.3330078125t-0.401123046875,0.204345703125t-0.46923828125,0.098388671875t-0.385986328125,0.01513671875q-0.95361328125,0-1.453125-0.71142578125t-0.718994140625-1.702880859375t-0.234619140625-2.035888671875t-0.01513671875-1.6953125q0-1.33203125,0.052978515625-2.724609375t0.128662109375-2.7548828125t0.2119140625-2.6640625t0.31787109375-2.421875q-0.52978515625,0.060546875-1.036865234375,0.13623046875t-1.036865234375,0.07568359375q-0.12109375,0-0.325439453125-0.01513671875t-0.385986328125-0.07568359375t-0.310302734375-0.16650390625t-0.128662109375-0.302734375z M43.250263671875,31.50390625l0-1.4228515625q0-0.77197265625,0.037841796875-2.187255859375t0.098388671875-3.10302734375t0.16650390625-3.519287109375t0.2421875-3.458740234375t0.325439453125-2.913818359375t0.431396484375-1.9072265625q0.1513671875-0.34814453125,0.49951171875-0.43896484375t0.68115234375-0.0908203125q0.52978515625,0,0.930908203125,0.234619140625t0.401123046875,0.855224609375l-0.2724609375,0.302734375q-0.52978515625,3.49658203125-0.68115234375,7.0234375t-0.2119140625,7.0537109375q0.37841796875-0.59033203125,0.855224609375-1.157958984375t1.0595703125-1.006591796875t1.25634765625-0.703857421875t1.475830078125-0.264892578125q1.029296875,0,1.702880859375,0.62060546875t1.112548828125,1.612060546875t0.65087890625,2.217529296875t0.325439453125,2.4521484375t0.158935546875,2.323486328125t0.13623046875,1.823974609375q-0.28759765625,0.3935546875-0.84765625,0.3935546875l-0.04541015625,0q-0.2421875,0-0.52978515625-0.060546875t-0.37841796875-0.302734375l0.0302734375,0.0302734375q-0.2119140625-0.46923828125-0.28759765625-1.354736328125t-0.12109375-1.95263671875t-0.158935546875-2.187255859375t-0.340576171875-2.0283203125t-0.666015625-1.49853515625t-1.1806640625-0.62060546875l-0.0908203125,0q-0.89306640625,0-1.49853515625,0.544921875q-0.6357421875,0.5751953125-1.029296875,1.513671875t-0.60546875,2.0888671875t-0.325439453125,2.217529296875t-0.174072265625,1.9375t-0.1513671875,1.279052734375q-0.0908203125,0.34814453125-0.537353515625,0.461669921875t-0.764404296875,0.113525390625q-0.74169921875,0-1.2109375-0.423828125q-0.34814453125-0.83251953125-0.40869140625-2.07373046875t-0.060546875-2.421875z M57.768950195312,26.062255859375q-0.037841796875-0.507080078125,0.060546875-0.930908203125t0.3935546875-0.688720703125t0.946044921875-0.264892578125q0.1513671875,0,0.370849609375,0.037841796875t0.431396484375,0.098388671875t0.355712890625,0.181640625t0.143798828125,0.3330078125l0,1.71044921875q0.59033203125-0.68115234375,1.28662109375-0.976318359375t1.58935546875-0.295166015625q0.68115234375,0,1.34716796875,0.310302734375t1.25634765625,0.824951171875t1.021728515625,1.13525390625t0.628173828125,1.2412109375q0.12109375-0.56005859375,0.2724609375-1.369873046875t0.446533203125-1.551513671875t0.779541015625-1.271484375t1.28662109375-0.52978515625q0.86279296875,0,1.453125,0.62060546875t0.961181640625,1.612060546875t0.56005859375,2.217529296875t0.280029296875,2.421875t0.0908203125,2.232666015625l0,1.627197265625q0,0.181640625-0.13623046875,0.295166015625t-0.340576171875,0.174072265625t-0.423828125,0.07568359375t-0.340576171875,0.01513671875q-0.46923828125,0-0.855224609375-0.143798828125t-0.385986328125-0.734130859375l0-1.3623046875t-0.0302734375-1.763427734375t-0.10595703125-1.89208984375t-0.19677734375-1.718017578125t-0.310302734375-1.2412109375t-0.461669921875-0.484375q-0.37841796875,0-0.544921875,0.423828125t-0.280029296875,1.07470703125t-0.174072265625,1.37744140625t-0.16650390625,1.37744140625t-0.340576171875,1.067138671875t-0.643310546875,0.416259765625q-0.43896484375,0-0.77197265625-0.416259765625t-0.658447265625-1.036865234375t-0.65087890625-1.33203125t-0.718994140625-1.33203125q-0.3935546875-0.6357421875-0.84765625-1.029296875q-0.40869140625-0.37841796875-0.92333984375-0.36328125l-0.07568359375,0q-0.68115234375,0.0302734375-1.067138671875,0.491943359375t-0.59033203125,1.127685546875t-0.249755859375,1.430419921875t-0.04541015625,1.339599609375q0,0.544921875,0.0908203125,1.271484375q0.060546875,0.484375,0.060546875,0.92333984375q0,0.22705078125-0.01513671875,0.43896484375q-0.04541015625,0.6357421875-0.340576171875,1.067138671875t-1.097412109375,0.431396484375q-0.302734375,0-0.7568359375-0.060546875t-0.60546875-0.40869140625q-0.34814453125-0.62060546875-0.52978515625-1.566650390625t-0.2724609375-1.95263671875t-0.10595703125-1.998046875t-0.01513671875-1.702880859375q0-0.49951171875-0.037841796875-1.006591796875z M76.85892578125,29.85400390625q0-1.029296875,0.280029296875-1.98291015625t0.840087890625-1.702880859375t1.400146484375-1.19580078125t1.945068359375-0.446533203125q0.68115234375,0,1.506103515625,0.204345703125t1.551513671875,0.60546875t1.2109375,1.021728515625t0.484375,1.4228515625q0,0.37841796875-0.128662109375,0.5751953125t-0.522216796875,0.19677734375l-0.16650390625-0.0302734375q0.43896484375,1.1806640625,0.7568359375,2.421875t0.62060546875,2.482421875q0.12109375,0.2421875,0.181640625,0.431396484375t0.060546875,0.370849609375q0,0.2421875-0.13623046875,0.401123046875t-0.355712890625,0.234619140625t-0.4541015625,0.10595703125t-0.416259765625,0.0302734375q-0.65087890625,0-0.976318359375-0.22705078125t-0.46923828125-0.62060546875t-0.174072265625-0.885498046875t-0.12109375-0.991455078125q-0.181640625,0.59033203125-0.476806640625,1.150390625t-0.6962890625,1.006591796875t-0.946044921875,0.71142578125t-1.22607421875,0.264892578125q-0.9990234375,0-1.68017578125-0.5751953125t-1.097412109375-1.415283203125t-0.60546875-1.793701171875t-0.189208984375-1.77099609375z M79.00833984375,29.64208984375q0,0.56005859375,0.07568359375,1.1806640625t0.249755859375,1.22607421875t0.446533203125,1.142822265625t0.68115234375,0.946044921875q0.74169921875-0.80224609375,1.097412109375-1.95263671875t0.6357421875-2.217529296875t0.6357421875-1.83154296875t1.097412109375-0.764404296875q0.46923828125,0,0.787109375,0.16650390625q-0.1513671875-0.37841796875-0.49951171875-0.734130859375t-0.779541015625-0.65087890625t-0.89306640625-0.484375t-0.870361328125-0.189208984375q-0.12109375,0-0.280029296875,0.037841796875t-0.249755859375,0.007568359375q-0.62060546875,0.181640625-1.021728515625,0.628173828125t-0.65087890625,1.052001953125t-0.355712890625,1.2412109375t-0.10595703125,1.19580078125z M89.992602539062,29.9296875l0-0.43896484375q0-0.544921875,0.0302734375-1.029296875q0.0302734375-0.68115234375,0.0302734375-1.1201171875q0-0.2421875,0.0302734375-0.552490234375t0.1513671875-0.491943359375q0.1513671875-0.1513671875,0.355712890625-0.310302734375t0.446533203125-0.158935546875q0.77197265625,0,1.2109375,0.174072265625t0.46923828125,0.718994140625l0.060546875,0.46923828125q0.2724609375-0.65087890625,0.7265625-1.612060546875t1.052001953125-1.83154296875t1.34716796875-1.4833984375t1.581787109375-0.613037109375q0.77197265625,0,1.271484375,0.7265625t0.794677734375,1.854248046875t0.416259765625,2.5126953125t0.16650390625,2.717041015625t0.060546875,2.429443359375t0.10595703125,1.657470703125q0.060546875,0.46923828125,0.204345703125,0.991455078125t0.143798828125,0.961181640625q0,0.12109375-0.174072265625,0.234619140625t-0.370849609375,0.189208984375t-0.401123046875,0.12109375t-0.295166015625,0.04541015625q-0.59033203125,0-0.840087890625-0.885498046875t-0.310302734375-2.217529296875t-0.060546875-2.883544921875t-0.10595703125-2.883544921875t-0.431396484375-2.217529296875t-1.036865234375-0.915771484375q-0.65087890625,0-1.34716796875,0.840087890625t-1.19580078125,2.232666015625q-0.484375,1.392578125-0.666015625,3.16357421875q-0.060546875,0.56005859375-0.060546875,1.1201171875q0,1.22607421875,0.25732421875,2.4521484375q0.0302734375,0.2119140625-0.174072265625,0.31787109375t-0.507080078125,0.16650390625t-0.613037109375,0.07568359375t-0.476806640625,0.01513671875q-0.59033203125,0-0.946044921875-0.416259765625t-0.552490234375-1.067138671875t-0.264892578125-1.460693359375t-0.083251953125-1.596923828125z M103.74688476562,30.474609375q0-1.0595703125,0.234619140625-2.49755859375t0.794677734375-2.724609375t1.475830078125-2.187255859375t2.308349609375-0.900634765625q1.3017578125,0,1.95263671875,0.749267578125t0.65087890625,2.020751953125q0,0.83251953125-0.310302734375,1.823974609375t-0.885498046875,1.876953125t-1.3623046875,1.475830078125t-1.755859375,0.59033203125l-0.3935546875-0.0302734375q0,0.40869140625,0.12109375,1.097412109375t0.355712890625,1.369873046875t0.60546875,1.19580078125t0.900634765625,0.5146484375q0.77197265625,0,1.4833984375-0.62060546875t1.34716796875-1.37744140625t1.1806640625-1.37744140625t0.9990234375-0.62060546875q0.2421875,0,0.49951171875,0.07568359375t0.28759765625,0.423828125q0,0.2119140625-0.113525390625,0.34814453125t-0.204345703125,0.302734375q-0.46923828125,0.80224609375-1.021728515625,1.52880859375t-1.248779296875,1.31689453125t-1.521240234375,0.930908203125t-1.823974609375,0.340576171875q-1.3017578125,0-2.16455078125-0.461669921875t-1.392578125-1.2412109375t-0.764404296875-1.80126953125t-0.234619140625-2.141845703125z M106.45635742187,29.32421875l0.423828125,0.37841796875q0.302734375,0.2724609375,0.60546875,0.12109375t0.544921875-0.552490234375t0.446533203125-0.991455078125t0.36328125-1.2109375t0.234619140625-1.2109375t0.07568359375-0.98388671875l0-0.5146484375t-0.04541015625-0.544921875t-0.158935546875-0.431396484375t-0.355712890625-0.219482421875q-0.07568359375-0.01513671875-0.13623046875-0.01513671875q-0.5146484375,0-0.8779296875,0.65087890625q-0.3935546875,0.7265625-0.6357421875,1.763427734375t-0.34814453125,2.126708984375t-0.13623046875,1.634765625z M122.32478515625,32.95703125q0.0908203125-2.4521484375,0.158935546875-5.025390625t0.128662109375-5.078369140625t0.0908203125-4.866455078125t0.0302734375-4.40478515625q0.0302734375-0.40869140625,0.71142578125-0.65087890625t1.627197265625-0.355712890625t1.998046875-0.143798828125t1.869384765625-0.0302734375q0.181640625,0,0.7568359375-0.01513671875l0.28759765625,0q0.43896484375,0,0.92333984375,0.0302734375q0.6357421875,0.04541015625,1.112548828125,0.19677734375t0.476806640625,0.43896484375q0,0.2119140625-0.16650390625,0.340576171875t-0.385986328125,0.189208984375t-0.4541015625,0.07568359375t-0.325439453125,0.01513671875q-1.4228515625,0-2.8154296875-0.04541015625q-0.37841796875-0.01513671875-0.77197265625-0.01513671875q-1.029296875,0-2.0888671875,0.0908203125q0.060546875,0.181640625,0.098388671875,1.097412109375t0.037841796875,2.066162109375t-0.01513671875,2.247802734375t0,1.687744140625l0,3.935546875q0.46923828125-0.0302734375,0.92333984375-0.0302734375l0.908203125,0l0.60546875-0.0302734375q0.302734375-0.01513671875,0.6357421875-0.01513671875q0.34814453125,0,0.71142578125,0.01513671875q0.7265625,0.0302734375,1.324462890625,0.174072265625t0.597900390625,0.507080078125q0,0.2724609375-0.22705078125,0.401123046875t-0.507080078125,0.189208984375t-0.52978515625,0.060546875l-0.280029296875,0q-0.86279296875,0-1.793701171875-0.060546875t-1.733154296875-0.060546875q-0.1513671875,0.060546875-0.325439453125,0.04541015625t-0.310302734375-0.01513671875q0,2.2705078125-0.04541015625,4.518310546875t-0.10595703125,4.472900390625q0,0.43896484375-0.552490234375,0.5751953125t-1.052001953125,0.13623046875q-0.56005859375,0-0.885498046875-0.13623046875t-0.461669921875-0.446533203125t-0.16650390625-0.824951171875q-0.01513671875-0.28759765625-0.0302734375-0.6357421875q0-0.28759765625,0.01513671875-0.62060546875z M134.67135253906,29.49072265625q0-1.392578125,0.325439453125-2.732177734375t0.552490234375-2.671630859375q0.060546875-0.34814453125,0.476806640625-0.431396484375t0.703857421875-0.083251953125q0.49951171875,0,0.80224609375,0.1513671875q0.12109375,0.060546875,0.22705078125,0.13623046875t0.10595703125,0.19677734375q0,1.3017578125-0.310302734375,2.54296875t-0.310302734375,2.6337890625q0,0.46923828125,0.068115234375,0.885498046875t0.128662109375,0.824951171875l0.0908203125,0.43896484375q0,0.12109375,0.01513671875,0.2119140625t0.04541015625,0.2119140625q0,0.2724609375-0.385986328125,0.370849609375t-0.673583984375,0.098388671875q-0.43896484375,0-0.809814453125-0.174072265625t-0.582763671875-0.597900390625l-0.2119140625-0.43896484375q-0.181640625-0.34814453125-0.181640625-0.779541015625t-0.07568359375-0.794677734375z M135.64010253906,20.37841796875l0-0.28759765625q0-0.71142578125,0.355712890625-1.271484375t1.067138671875-0.56005859375q0.0908203125,0,0.174072265625,0.01513671875t0.174072265625,0.01513671875q0.181640625,0.0302734375,0.476806640625,0.143798828125t0.295166015625,0.355712890625l0,0.0302734375q-0.060546875,0.12109375-0.07568359375,0.249755859375t-0.07568359375,0.219482421875l0.0302734375-0.0302734375q-0.181640625,0.46923828125-0.295166015625,0.7568359375t-0.249755859375,0.461669921875t-0.340576171875,0.249755859375t-0.582763671875,0.07568359375q-0.060546875,0-0.2119140625-0.01513671875t-0.325439453125-0.060546875t-0.295166015625-0.12109375t-0.12109375-0.22705078125z M141.28110351562,35.2275390625q0-0.43896484375,0.037841796875-0.92333984375t0.068115234375-0.908203125l0.0908203125-2.2705078125q0.1513671875-2.724609375,0.370849609375-5.3583984375t0.370849609375-5.328125q0.0908203125-1.4833984375,0.13623046875-2.913818359375t0.13623046875-2.913818359375q-0.060546875-0.12109375-0.060546875-0.16650390625q0-0.2119140625,0.158935546875-0.3330078125t0.370849609375-0.204345703125t0.446533203125-0.113525390625t0.355712890625-0.0302734375l0.34814453125,0q0.46923828125,0.060546875,0.68115234375,0.295166015625t0.2724609375,0.56005859375t0.0302734375,0.6962890625t-0.0302734375,0.688720703125q0,2.19482421875-0.10595703125,4.472900390625t-0.2421875,4.5712890625t-0.249755859375,4.58642578125t-0.113525390625,4.533447265625l0,1.0595703125q0,0.71142578125-0.401123046875,0.9384765625t-1.112548828125,0.22705078125q-0.62060546875,0-1.08984375-0.2724609375t-0.46923828125-0.89306640625z M148.22386230469,29.85400390625q0-1.029296875,0.280029296875-1.98291015625t0.840087890625-1.702880859375t1.400146484375-1.19580078125t1.945068359375-0.446533203125q0.68115234375,0,1.506103515625,0.204345703125t1.551513671875,0.60546875t1.2109375,1.021728515625t0.484375,1.4228515625q0,0.37841796875-0.128662109375,0.5751953125t-0.522216796875,0.19677734375l-0.16650390625-0.0302734375q0.43896484375,1.1806640625,0.7568359375,2.421875t0.62060546875,2.482421875q0.12109375,0.2421875,0.181640625,0.431396484375t0.060546875,0.370849609375q0,0.2421875-0.13623046875,0.401123046875t-0.355712890625,0.234619140625t-0.4541015625,0.10595703125t-0.416259765625,0.0302734375q-0.65087890625,0-0.976318359375-0.22705078125t-0.46923828125-0.62060546875t-0.174072265625-0.885498046875t-0.12109375-0.991455078125q-0.181640625,0.59033203125-0.476806640625,1.150390625t-0.6962890625,1.006591796875t-0.946044921875,0.71142578125t-1.22607421875,0.264892578125q-0.9990234375,0-1.68017578125-0.5751953125t-1.097412109375-1.415283203125t-0.60546875-1.793701171875t-0.189208984375-1.77099609375z M150.37327636719,29.64208984375q0,0.56005859375,0.07568359375,1.1806640625t0.249755859375,1.22607421875t0.446533203125,1.142822265625t0.68115234375,0.946044921875q0.74169921875-0.80224609375,1.097412109375-1.95263671875t0.6357421875-2.217529296875t0.6357421875-1.83154296875t1.097412109375-0.764404296875q0.46923828125,0,0.787109375,0.16650390625q-0.1513671875-0.37841796875-0.49951171875-0.734130859375t-0.779541015625-0.65087890625t-0.89306640625-0.484375t-0.870361328125-0.189208984375q-0.12109375,0-0.280029296875,0.037841796875t-0.249755859375,0.007568359375q-0.62060546875,0.181640625-1.021728515625,0.628173828125t-0.65087890625,1.052001953125t-0.355712890625,1.2412109375t-0.10595703125,1.19580078125z M161.34240234375,35.2275390625q0-0.43896484375,0.037841796875-0.92333984375t0.068115234375-0.908203125l0.0908203125-2.2705078125q0.1513671875-2.724609375,0.370849609375-5.3583984375t0.370849609375-5.328125q0.0908203125-1.4833984375,0.13623046875-2.913818359375t0.13623046875-2.913818359375q-0.060546875-0.12109375-0.060546875-0.16650390625q0-0.2119140625,0.158935546875-0.3330078125t0.370849609375-0.204345703125t0.446533203125-0.113525390625t0.355712890625-0.0302734375l0.34814453125,0q0.46923828125,0.060546875,0.68115234375,0.295166015625t0.2724609375,0.56005859375t0.0302734375,0.6962890625t-0.0302734375,0.688720703125q0,2.19482421875-0.10595703125,4.472900390625t-0.2421875,4.5712890625t-0.249755859375,4.58642578125t-0.113525390625,4.533447265625l0,1.0595703125q0,0.71142578125-0.401123046875,0.9384765625t-1.112548828125,0.22705078125q-0.62060546875,0-1.08984375-0.2724609375t-0.46923828125-0.89306640625z M168.28516113281,29.49072265625q0-1.392578125,0.325439453125-2.732177734375t0.552490234375-2.671630859375q0.060546875-0.34814453125,0.476806640625-0.431396484375t0.703857421875-0.083251953125q0.49951171875,0,0.80224609375,0.1513671875q0.12109375,0.060546875,0.22705078125,0.13623046875t0.10595703125,0.19677734375q0,1.3017578125-0.310302734375,2.54296875t-0.310302734375,2.6337890625q0,0.46923828125,0.068115234375,0.885498046875t0.128662109375,0.824951171875l0.0908203125,0.43896484375q0,0.12109375,0.01513671875,0.2119140625t0.04541015625,0.2119140625q0,0.2724609375-0.385986328125,0.370849609375t-0.673583984375,0.098388671875q-0.43896484375,0-0.809814453125-0.174072265625t-0.582763671875-0.597900390625l-0.2119140625-0.43896484375q-0.181640625-0.34814453125-0.181640625-0.779541015625t-0.07568359375-0.794677734375z M169.25391113281,20.37841796875l0-0.28759765625q0-0.71142578125,0.355712890625-1.271484375t1.067138671875-0.56005859375q0.0908203125,0,0.174072265625,0.01513671875t0.174072265625,0.01513671875q0.181640625,0.0302734375,0.476806640625,0.143798828125t0.295166015625,0.355712890625l0,0.0302734375q-0.060546875,0.12109375-0.07568359375,0.249755859375t-0.07568359375,0.219482421875l0.0302734375-0.0302734375q-0.181640625,0.46923828125-0.295166015625,0.7568359375t-0.249755859375,0.461669921875t-0.340576171875,0.249755859375t-0.582763671875,0.07568359375q-0.060546875,0-0.2119140625-0.01513671875t-0.325439453125-0.060546875t-0.295166015625-0.12109375t-0.12109375-0.22705078125z"/><path fill="#" d=""/></svg>
